<svg xmlns="http://www.w3.org/2000/svg" width="224.43" height="48.553" viewBox="0 0 224.43 48.553">
  <g id="logo" transform="translate(-112.641 -155.085)">
    <g id="Group_26" data-name="Group 26" transform="translate(191.249 170.311)">
      <path id="Path_13193" data-name="Path 13193" d="M86.984,366.459v6.418H99.5v4.575H86.984V388.02H82.019V362.061H101.1v4.4Z" transform="translate(-82.019 -362.061)" fill="#00359d"/>
      <path id="Path_13194" data-name="Path 13194" d="M159.434,388.55a12.825,12.825,0,0,1-4.575-.78,10.061,10.061,0,0,1-3.511-2.2,9.708,9.708,0,0,1-2.252-3.44,12.167,12.167,0,0,1-.8-4.5V362.166h4.965V377.6a7.179,7.179,0,0,0,.639,3.222,5.862,5.862,0,0,0,1.578,2.018,5.46,5.46,0,0,0,2.021,1.027,6.749,6.749,0,0,0,3.865,0,5.471,5.471,0,0,0,2.021-1.027,5.875,5.875,0,0,0,1.578-2.018,7.176,7.176,0,0,0,.638-3.222V362.166h4.965v15.462a12.427,12.427,0,0,1-.78,4.5,9.529,9.529,0,0,1-2.234,3.44,10.063,10.063,0,0,1-3.511,2.2A12.932,12.932,0,0,1,159.434,388.55Z" transform="translate(-125.887 -362.13)" fill="#00359d"/>
      <path id="Path_13195" data-name="Path 13195" d="M247.3,366.459h-7.412V388.02h-4.965V366.459h-7.447v-4.4H247.3Z" transform="translate(-178.291 -362.061)" fill="#00359d"/>
      <path id="Path_13196" data-name="Path 13196" d="M303.231,388.02h-4.965V362.061H310.06a9.783,9.783,0,0,1,3.642.656,8.128,8.128,0,0,1,2.824,1.844,8.445,8.445,0,0,1,1.829,2.837,9.645,9.645,0,0,1,.657,3.6,9.012,9.012,0,0,1-1.474,5.142,8.231,8.231,0,0,1-3.925,3.156q3.271,4.327,6.464,8.724h-5.922q-1.555-2.021-3.04-4.078t-2.969-4.184h-4.913Zm0-12.66h6.822a4.044,4.044,0,0,0,1.4-.266,3.624,3.624,0,0,0,1.29-.816,4.456,4.456,0,0,0,.937-1.365,4.6,4.6,0,0,0,.371-1.915,7.711,7.711,0,0,0-.141-1.348,4.419,4.419,0,0,0-.566-1.49,3.657,3.657,0,0,0-1.2-1.205,3.838,3.838,0,0,0-2.085-.5h-6.822Z" transform="translate(-225.142 -362.061)" fill="#00359d"/>
      <path id="Path_13197" data-name="Path 13197" d="M376.642,366.459v6.49H389.2v4.5H376.642v6.1h14.149v4.468H371.677V362.061h19.114v4.4Z" transform="translate(-273.73 -362.061)" fill="#00359d"/>
      <path id="Path_13198" data-name="Path 13198" d="M446.662,375.252,436.8,362.166h6.206l6.738,9.327,6.738-9.327h6.171l-9.823,13.086,9.646,12.837h-6.206l-6.525-9.043-6.525,9.043h-6.206Z" transform="translate(-316.833 -362.13)" fill="#00359d"/>
    </g>
    <path id="Path_13199" data-name="Path 13199" d="M271.621,251.358H246.5a.49.49,0,0,0-.424.735l12.56,21.755a.49.49,0,0,0,.848,0l12.56-21.755A.49.49,0,0,0,271.621,251.358Z" transform="translate(-118.514 -71.921)" fill="#fff"/>
    <path id="Path_13200" data-name="Path 13200" d="M242.982,202.4,215.9,155.5a.825.825,0,0,0-1.429,0l-27.079,46.9a.825.825,0,0,0,.715,1.237h54.159A.825.825,0,0,0,242.982,202.4Zm-28.218-.473L202.2,180.171a.49.49,0,0,1,.424-.735h25.12a.49.49,0,0,1,.424.735l-12.56,21.755A.49.49,0,0,1,214.764,201.926Z" transform="translate(-74.641 0)" fill="#00359d"/>
  </g>
</svg>
