<svg xmlns="http://www.w3.org/2000/svg" width="31.936" height="25.088" viewBox="0 0 31.936 25.088">
  <g id="catalog" transform="translate(1.414 1.257)">
    <g id="Group_883" data-name="Group 883" transform="translate(0 0)">
      <path id="Path_13226" data-name="Path 13226" d="M227.433,78.777l8.667-8.234-5.406-5.69Z" transform="translate(-206.992 -62.37)" fill="none" stroke="#fff" stroke-width="2"/>
      <path id="Path_13227" data-name="Path 13227" d="M170.409,45.807l.164.513,2.159,6.74,2.648-11.306.2-.861.191-.815-.031-.007-7.68-1.8-.028.12,2.212,6.9Z" transform="translate(-152.931 -38.178)" fill="none" stroke="#fff" stroke-width="2"/>
      <path id="Path_13228" data-name="Path 13228" d="M79.935,38.382l-.288-.9-.082-.254-7.542,2.416.277.863,5.378,5.379.4.4.4.4.928.928.344.343.343.344,4.414,4.413.007-.023-2.111-6.586-.164-.514-.164-.513-1.86-5.806Z" transform="translate(-65.551 -37.23)" fill="none" stroke="#fff" stroke-width="2"/>
      <path id="Path_13229" data-name="Path 13229" d="M5.6,68.558l-.013.013L0,74.158l9.873,9.873.4.4.4.4.172.172.124.124.516.517.11.109.406.406.344.344.385.385.36.36.36.359.542.543,1.734-1.735.039-.038.076-.076.383-.383.194-.194.265-.265.191-.191L17,85.154l1.028-1.028.053-.053.736-.736.451-.451.285-.285.042-.043-.022-.022-.181-.181-.207-.208-.388-.388-4.6-4.6-.343-.343-.343-.343-.706-.706-.4-.4-.4-.4L7.073,70.031l-.75-.75Zm9.026,13.268a1.444,1.444,0,1,1-1.444,1.444A1.444,1.444,0,0,1,14.626,81.826Z" transform="translate(0 -65.742)" fill="none" stroke="#fff" stroke-width="2"/>
    </g>
  </g>
</svg>
