<svg xmlns="http://www.w3.org/2000/svg" width="21.815" height="21.815" viewBox="0 0 21.815 21.815">
  <g id="Country" transform="translate(0.1 0.1)">
    <g id="Group_890" data-name="Group 890" transform="translate(0)">
      <path id="Path_13239" data-name="Path 13239" d="M10.808,0A10.808,10.808,0,1,0,21.615,10.808,10.808,10.808,0,0,0,10.808,0Zm10,10.408h-1.56a1.944,1.944,0,0,0-1.6-1.517,15.562,15.562,0,0,0-.579-2.822,10.606,10.606,0,0,0,1.888-1.09A9.95,9.95,0,0,1,20.809,10.408Zm-7.212.8h1.844a1.947,1.947,0,0,0,1.389,1.469,14.513,14.513,0,0,1-.531,2.562,14.625,14.625,0,0,0-2.862-.746C13.537,13.37,13.589,12.24,13.6,11.207Zm-.156-4.083A14.625,14.625,0,0,0,16.3,6.378a14.512,14.512,0,0,1,.531,2.562,1.948,1.948,0,0,0-1.393,1.469H13.6C13.6,9.379,13.537,8.249,13.442,7.124ZM16.2,10.808a1.149,1.149,0,1,1,1.149,1.149A1.149,1.149,0,0,1,16.2,10.808ZM18.446,4.35a9.8,9.8,0,0,1-1.652.958,9.726,9.726,0,0,0-2.526-3.9A10.049,10.049,0,0,1,18.446,4.35Zm-2.4,1.269a13.751,13.751,0,0,1-2.686.706,15.875,15.875,0,0,0-1.281-5.3A7.444,7.444,0,0,1,16.044,5.619ZM5.081,16.962a1.149,1.149,0,1,1-.008-2.3h.008A1.149,1.149,0,0,1,6.226,15.8v0A1.149,1.149,0,0,1,5.081,16.962Zm0-3.1h-.1a15.65,15.65,0,0,1-.291-2.654H8.014c0,1.034.064,2.163.16,3.289q-.738.12-1.449.3A1.94,1.94,0,0,0,5.077,13.861Zm-.4-3.452A15.165,15.165,0,0,1,5.308,6.37a13.963,13.963,0,0,0,1.4.447A1.94,1.94,0,0,0,8.078,8.585c-.028.6-.048,1.2-.052,1.828Zm2.814-3.68A1.149,1.149,0,1,1,8.64,7.878,1.149,1.149,0,0,1,7.491,6.729ZM8.864,8.652a1.936,1.936,0,0,0,1.6-1.325h.327a17.008,17.008,0,0,0,1.868-.112c.08.954.128,2.015.14,3.193H8.812C8.812,9.814,8.832,9.211,8.864,8.652ZM12.8,11.207c0,1.161-.06,2.223-.14,3.193a16.442,16.442,0,0,0-3.7,0c-.08-.958-.132-2.019-.14-3.193H12.8ZM10.808.8c.519,0,1.377,1.924,1.776,5.639a16.285,16.285,0,0,1-1.776.1h-.243a1.936,1.936,0,0,0-1.321-1.64C9.726,1.92,10.448.8,10.808.8Zm-1.277.22a12.535,12.535,0,0,0-1.078,3.8,1.94,1.94,0,0,0-1.636,1.2,13.124,13.124,0,0,1-1.269-.4C6.417,3.3,7.854,1.6,9.53,1.018Zm-2.123.375A9.878,9.878,0,0,0,4.821,5.316,9.792,9.792,0,0,1,3.153,4.35,10.046,10.046,0,0,1,7.407,1.393ZM2.678,4.977v.008a10.637,10.637,0,0,0,1.9,1.094,15.756,15.756,0,0,0-.7,4.33H.806A9.949,9.949,0,0,1,2.678,4.977Zm0,11.666v.008A9.949,9.949,0,0,1,.806,11.207H3.883A16.4,16.4,0,0,0,4.2,14.08a1.94,1.94,0,0,0-1.07,1.728,1.915,1.915,0,0,0,.068.483Q2.929,16.459,2.678,16.642Zm.5.634a4.3,4.3,0,0,1,.393-.259,1.924,1.924,0,0,0,1.908.706,8.872,8.872,0,0,0,1.9,2.494A10.049,10.049,0,0,1,3.175,17.276ZM6.2,17.4A1.944,1.944,0,0,0,7.024,15.8,1.913,1.913,0,0,0,7,15.553q.619-.16,1.261-.263A15.841,15.841,0,0,0,9.546,20.6,6.38,6.38,0,0,1,6.2,17.4Zm4.606,3.419c-.519,0-1.373-1.92-1.772-5.631a15.7,15.7,0,0,1,3.548,0C12.184,18.893,11.326,20.817,10.808,20.817Zm1.269-.227v0a15.952,15.952,0,0,0,1.281-5.3A13.75,13.75,0,0,1,16.044,16,7.425,7.425,0,0,1,12.077,20.589Zm2.191-.387,0-.016a9.726,9.726,0,0,0,2.53-3.879,9.8,9.8,0,0,1,1.652.962A10.049,10.049,0,0,1,14.268,20.2Zm4.669-3.564v-.016a10.612,10.612,0,0,0-1.888-1.09,15.566,15.566,0,0,0,.583-2.81,1.944,1.944,0,0,0,1.6-1.517h1.56A9.949,9.949,0,0,1,18.937,16.638Z" transform="translate(0)" fill="#fafafa" stroke="#fff" stroke-width="0.2"/>
    </g>
  </g>
</svg>
