<svg xmlns="http://www.w3.org/2000/svg" width="21.842" height="21.426" viewBox="0 0 21.842 21.426">
  <g id="Organization" transform="translate(0.151 -4.291)">
    <g id="Group_892" data-name="Group 892" transform="translate(-0.001 4.441)">
      <g id="Group_891" data-name="Group 891" transform="translate(0 0)">
        <path id="Path_13243" data-name="Path 13243" d="M190.04,8.358A1.958,1.958,0,1,0,188.082,6.4,1.958,1.958,0,0,0,190.04,8.358Zm0-2.938a.979.979,0,1,1-.979.979A.979.979,0,0,1,190.04,5.42Z" transform="translate(-179.269 -4.441)" fill="#fafafa" stroke="#fff" stroke-width="0.3"/>
        <path id="Path_13244" data-name="Path 13244" d="M160.874,94.8h-1.4a2.668,2.668,0,0,0-2.741,2.593v.418c0,.269.269.416.539.416h5.777c.269,0,.539-.147.539-.416v-.392A2.668,2.668,0,0,0,160.874,94.8Zm-3.11,2.449a1.728,1.728,0,0,1,1.714-1.469h1.371a1.728,1.728,0,0,1,1.714,1.469Z" transform="translate(-149.391 -90.569)" fill="#fafafa" stroke="#fff" stroke-width="0.3"/>
        <path id="Path_13245" data-name="Path 13245" d="M50.122,124.275a.49.49,0,0,0,.49-.49A7.466,7.466,0,0,1,53.4,117.96a.49.49,0,0,0-.612-.759,8.421,8.421,0,0,0-3.158,6.585A.49.49,0,0,0,50.122,124.275Z" transform="translate(-47.307 -111.84)" fill="#fafafa" stroke="#fff" stroke-width="0.3"/>
        <path id="Path_13246" data-name="Path 13246" d="M171.365,409.719l-.011,0a7.442,7.442,0,0,1-4.725,0,.49.49,0,0,0-.612.318.465.465,0,0,0,.265.6l.029.01a8.372,8.372,0,0,0,5.361,0,.514.514,0,0,0,.318-.636A.49.49,0,0,0,171.365,409.719Z" transform="translate(-158.207 -390.702)" fill="#fafafa" stroke="#fff" stroke-width="0.3"/>
        <path id="Path_13247" data-name="Path 13247" d="M317.539,111.073a7.442,7.442,0,0,1,3.158,6.1.49.49,0,1,0,.979,0,8.495,8.495,0,0,0-3.574-6.9.492.492,0,1,0-.563.808Z" transform="translate(-302.46 -105.223)" fill="#fafafa" stroke="#fff" stroke-width="0.3"/>
        <path id="Path_13248" data-name="Path 13248" d="M33.305,295.7a1.958,1.958,0,1,0-1.958-1.958A1.958,1.958,0,0,0,33.305,295.7Zm0-2.938a.979.979,0,1,1-.979.979A.979.979,0,0,1,33.305,292.767Z" transform="translate(-29.878 -278.324)" fill="#fafafa" stroke="#fff" stroke-width="0.3"/>
        <path id="Path_13249" data-name="Path 13249" d="M4.138,382.15h-1.4A2.668,2.668,0,0,0,0,384.744c0,.009,0,.017,0,.026v.392c0,.269.269.416.539.416H6.315c.269,0,.539-.147.539-.416v-.392A2.668,2.668,0,0,0,4.138,382.15ZM1.027,384.6a1.728,1.728,0,0,1,1.714-1.469H4.112A1.728,1.728,0,0,1,5.825,384.6Z" transform="translate(0.001 -364.452)" fill="#fafafa" stroke="#fff" stroke-width="0.3"/>
        <path id="Path_13250" data-name="Path 13250" d="M344.816,293.746a1.958,1.958,0,1,0,1.958-1.958A1.958,1.958,0,0,0,344.816,293.746Zm2.938,0a.979.979,0,1,1-.979-.979A.979.979,0,0,1,347.754,293.746Z" transform="translate(-328.659 -278.324)" fill="#fafafa" stroke="#fff" stroke-width="0.3"/>
        <path id="Path_13251" data-name="Path 13251" d="M317.608,382.15h-1.4a2.668,2.668,0,0,0-2.741,2.593v.418c0,.269.269.416.539.416h5.777c.269,0,.539-.147.539-.416v-.392A2.668,2.668,0,0,0,317.608,382.15ZM314.5,384.6a1.728,1.728,0,0,1,1.714-1.469h1.371A1.728,1.728,0,0,1,319.3,384.6Z" transform="translate(-298.781 -364.452)" fill="#fafafa" stroke="#fff" stroke-width="0.3"/>
      </g>
    </g>
  </g>
</svg>
