<svg xmlns="http://www.w3.org/2000/svg" width="36.998" height="33.172" viewBox="0 0 36.998 33.172">
  <g id="Stakeholders" transform="translate(0)">
    <g id="Group_880" data-name="Group 880" transform="translate(0 0)">
      <path id="Path_13221" data-name="Path 13221" d="M394.862,188.579a3.947,3.947,0,1,1,.087-7.865,1.3,1.3,0,0,0,1.515-.795c.746-1.376,1.542-2.726,2.352-4.065a1.055,1.055,0,0,0-.076-1.364,3.937,3.937,0,0,1,1.043-5.845,3.9,3.9,0,0,1,5.649,1.836,1.238,1.238,0,0,0,1.33.819c1.531-.031,3.064-.026,4.6,0a1.209,1.209,0,0,0,1.271-.767,3.94,3.94,0,1,1,6.691,3.992.819.819,0,0,0-.107,1.012c.931,1.585,1.86,3.171,2.764,4.771a.839.839,0,0,0,1.013.421A3.981,3.981,0,0,1,427,186.738a3.7,3.7,0,0,1-3.926,1.8,1.015,1.015,0,0,0-1.217.6c-.794,1.466-1.637,2.907-2.5,4.333a1.065,1.065,0,0,0,.023,1.365,3.946,3.946,0,1,1-6.8,3.833,1.073,1.073,0,0,0-1.165-.734c-1.6.021-3.2.031-4.8,0a1.04,1.04,0,0,0-1.124.777,3.95,3.95,0,0,1-7.194.315,3.651,3.651,0,0,1,.5-4.282.861.861,0,0,0,.1-1.167c-.878-1.458-1.75-2.921-2.555-4.42C395.955,188.435,395.4,188.5,394.862,188.579Zm21.879,4.748c.882.431,1.251-.282,1.653-1q1.123-2.005,2.3-3.977a.913.913,0,0,0-.076-1.179,3.736,3.736,0,0,1,.015-5.045.891.891,0,0,0,.073-1.178q-1.335-2.236-2.62-4.5a.907.907,0,0,0-1.073-.517,3.879,3.879,0,0,1-4.394-2.359,1.157,1.157,0,0,0-1.239-.792c-1.566.027-3.133.03-4.7,0a1.123,1.123,0,0,0-1.226.8,3.755,3.755,0,0,1-4.275,2.364.915.915,0,0,0-1.078.512q-1.313,2.308-2.664,4.594a.79.79,0,0,0,.065,1.007c1.361,1.861,1.387,3.314.069,5.124a.914.914,0,0,0-.069,1.18c.856,1.432,1.694,2.874,2.5,4.334a1.135,1.135,0,0,0,1.3.662,3.782,3.782,0,0,1,4.133,2.326,1.193,1.193,0,0,0,1.25.8q2.451-.035,4.9.012a.893.893,0,0,0,.983-.648A3.848,3.848,0,0,1,416.74,193.328Zm-14.977,6.391a2.41,2.41,0,0,0,2.58-2.422,2.507,2.507,0,1,0-5.012-.122A2.375,2.375,0,0,0,401.763,199.719Zm.052-25.174a2.463,2.463,0,0,0,2.529-2.505,2.514,2.514,0,0,0-2.544-2.513A2.482,2.482,0,0,0,399.331,172,2.45,2.45,0,0,0,401.815,174.545Zm14.448,0a2.511,2.511,0,0,0,2.549-2.517,2.541,2.541,0,0,0-2.583-2.5,2.508,2.508,0,0,0,.034,5.014ZM397.028,184.7a2.377,2.377,0,0,0-2.469-2.533,2.506,2.506,0,0,0-2.547,2.5,2.587,2.587,0,0,0,2.57,2.521A2.484,2.484,0,0,0,397.028,184.7Zm24.146-.093a2.488,2.488,0,0,0,2.453,2.583,2.588,2.588,0,0,0,2.561-2.531,2.507,2.507,0,0,0-2.454-2.491A2.376,2.376,0,0,0,421.174,184.6Zm-4.927,15.114a2.5,2.5,0,0,0,2.565-2.486,2.663,2.663,0,0,0-2.578-2.536,2.592,2.592,0,0,0-2.484,2.608A2.424,2.424,0,0,0,416.246,199.716Z" transform="translate(-390.629 -168.051)" fill="#fafafa"/>
      <path id="Path_13222" data-name="Path 13222" d="M450.851,228.131c-2.245,0-4.49.008-6.735,0-1.054,0-1.278-.358-.817-1.307a3.747,3.747,0,0,1,2.566-1.856,3.876,3.876,0,0,0,2.415-1.564c.288-.453.423-.8-.028-1.241a4.6,4.6,0,0,1-1.264-3.043,5.127,5.127,0,0,1,1.58-4.012,3.217,3.217,0,0,1,3.517-.622,2.882,2.882,0,0,1,1.609,1.35,6.131,6.131,0,0,1,1.022,3.124,7.4,7.4,0,0,1-.966,2.76c-.228.41-.935.656-.607,1.277a3.123,3.123,0,0,0,1.618,1.625c.7.261,1.418.482,2.1.791a2.832,2.832,0,0,1,1.583,1.645c.253.716.1,1.093-.753,1.085C455.409,228.114,453.13,228.13,450.851,228.131Z" transform="translate(-432.353 -204.78)" fill="#fafafa"/>
    </g>
  </g>
</svg>
