<svg xmlns="http://www.w3.org/2000/svg" width="26.342" height="22.242" viewBox="0 0 26.342 22.242">
  <g id="Unit_Of_Measurements" data-name="Unit Of Measurements" transform="translate(0 -43.543)">
    <g id="Group_893" data-name="Group 893" transform="translate(0 43.543)">
      <path id="Path_13252" data-name="Path 13252" d="M0,67.366H6.171V45.289H0Zm.943-2.121H2.257V64.9H.943v-.87H2.257v-.343H.943v-.776H2.257v-.344H.943V61.8H3.656v-.551H.943v-.94H2.257v-.344H.943v-.869H2.257V58.75H.943v-.777H2.257V57.63H.943v-.772H3.656v-.55H.943V55.2H2.257v-.344H.943v-.869H2.257V53.64H.943v-.776H2.257V52.52H.943v-.771H3.656V51.2H.943v-.852H2.614V50H.943v-.87H2.614V48.79H.943v-.777H2.614V47.67H.943V46.232H5.228V66.423H.943Z" transform="translate(0 -45.207)" fill="#fff"/>
      <path id="Path_13253" data-name="Path 13253" d="M166.924,43.543V65.785h18.483Zm.944,20.718h1.314v-.336h-1.314v-.85h1.314v-.335h-1.314v-.76h1.314v-.336h-1.314v-.754h2.712v-.538h-2.712v-.918h1.314V59.1h-1.314v-.85h1.314V57.91h-1.314v-.759h1.314v-.336h-1.314V56.06h2.712v-.538h-2.712V54.437h1.314V54.1h-1.314v-.85h1.314v-.334h-1.314v-.76h1.314v-.335h-1.314v-.755h2.712V50.53h-2.712V49.7h1.671v-.336h-1.671v-.85h1.671v-.336h-1.671V46.141l15.558,18.722H167.868Z" transform="translate(-159.065 -43.543)" fill="#fff"/>
      <path id="Path_13254" data-name="Path 13254" d="M256.832,276.151v7.639h6.349Zm.943,2.6,3.423,4.118h-3.423Z" transform="translate(-244.74 -265.199)" fill="#fff"/>
    </g>
  </g>
</svg>
