<svg xmlns="http://www.w3.org/2000/svg" width="24.816" height="24.803" viewBox="0 0 24.816 24.803">
  <g id="Usermangement" transform="translate(0)">
    <g id="Group_884" data-name="Group 884" transform="translate(0)">
      <path id="Path_13231" data-name="Path 13231" d="M640.706,184.006a9.478,9.478,0,0,1,.141-1.179,2.874,2.874,0,0,1,2.742-2.168.636.636,0,0,0,.176,0c.22-.071.437-.151.655-.228-.1-.2-.186-.4-.3-.59a2.355,2.355,0,0,0-.237-.262,2.9,2.9,0,0,1-.662-2.394,3.967,3.967,0,0,1,4.036-3.049,3.263,3.263,0,0,1,1.75.971c.127.123.39.248.512.194a.613.613,0,0,0,.216-.505,2.99,2.99,0,0,1,3.2-3.155,3.856,3.856,0,0,1,2.5.664,2.859,2.859,0,0,1,1.07,2.192,4.7,4.7,0,0,0,.011.53.344.344,0,0,0,.588.235c.151-.116.273-.268.416-.4a2.872,2.872,0,0,1,3.9-.025,10.649,10.649,0,0,1,.937.939,2.894,2.894,0,0,1-.024,3.843,3.38,3.38,0,0,0-.363.385.58.58,0,0,0-.113.425.534.534,0,0,0,.376.223c.347.054.711.021,1.051.1a2.84,2.84,0,0,1,2.221,2.782,7.975,7.975,0,0,1-.093,1.67,2.8,2.8,0,0,1-2.781,2.214.959.959,0,0,0-.984.475.906.906,0,0,1-1.228.213.953.953,0,0,1-.382-1.2,2.195,2.195,0,0,1,2.019-1.414c1.391-.085,1.514-.205,1.513-1.605,0-.991-.291-1.283-1.3-1.288a2.3,2.3,0,0,1-1.648-4.006c.691-.7.663-1.11,0-1.833-.874-.95-1.339-1-2.244-.059a2.062,2.062,0,0,1-2.419.417,2.178,2.178,0,0,1-1.389-1.992c-.1-1.42-.206-1.533-1.635-1.531-.963,0-1.257.294-1.259,1.276a2.306,2.306,0,0,1-4,1.683c-.749-.739-1.113-.735-1.847,0l-.157.156c-.769.769-.774,1.139-.016,1.919a2.3,2.3,0,0,1-1.66,3.97c-1.065.012-1.326.277-1.327,1.343,0,.177,0,.354,0,.531a.959.959,0,0,0,.993,1.012c.177.008.355-.006.531.008a2.224,2.224,0,0,1,1.979,1.343.967.967,0,0,1-.4,1.3,1,1,0,0,1-1.308-.377.8.8,0,0,0-.511-.318C641.733,187.318,640.744,186.279,640.706,184.006Z" transform="translate(-640.706 -171.634)" fill="#fafafa"/>
      <path id="Path_13232" data-name="Path 13232" d="M699.411,265.5c.74.5,1.476.961,2.166,1.48a1,1,0,0,1,.308,1.522c-.4.474-.956.457-1.553-.049a6.56,6.56,0,0,0-10.559,3.064c-.216.726-.087.9.68.9q5.641,0,11.282,0c.6,0,.679-.09.657-.7a.972.972,0,0,1,1.931-.219,2.37,2.37,0,0,1-2.316,2.853q-5.95.018-11.9,0a2.361,2.361,0,0,1-2.284-3.049,8.377,8.377,0,0,1,4.525-5.539l.409-.208a4.9,4.9,0,0,1-1.4-4.782,4.671,4.671,0,0,1,1.885-2.751,4.828,4.828,0,0,1,6.268.565C701.367,260.5,701.324,262.912,699.411,265.5Zm-6.259-3.513a2.895,2.895,0,1,0,2.882-2.92A2.92,2.92,0,0,0,693.152,261.989Z" transform="translate(-683.57 -249.568)" fill="#fafafa"/>
    </g>
  </g>
</svg>
