<svg xmlns="http://www.w3.org/2000/svg" width="19.371" height="19.51" viewBox="0 0 19.371 19.51">
  <g id="city" transform="translate(0)">
    <path id="XMLID_36_" d="M-392.022,112h-3.912c-.147,0-.166.083-.166.23v6.523c0,.186.083.293.25.293s.23-.147.23-.357h3.7v-6.107c.21,0,.23-.127.23-.273A.326.326,0,0,0-392.022,112Zm-.733,2.172v1.946c0,.147-.127.25-.313.25h-1.3c-.147,0-.48-.063-.48-.25v-1.946c0-.147.333-.293.48-.293h1.316A.3.3,0,0,1-392.755,114.172Z" transform="translate(396.227 -108.025)" fill="#fff"/>
    <path id="XMLID_896_" d="M-274.912,471.3h-9.075a.309.309,0,0,0-.313.313v.67a.309.309,0,0,0,.313.313.309.309,0,0,0,.313-.313v-.313h8.782a.309.309,0,0,0,.313-.313A.3.3,0,0,0-274.912,471.3Z" transform="translate(288.857 -453.086)" fill="#fff"/>
    <path id="XMLID_890_" d="M-397.667,306.7c-1.633,0-1.633,4.181-1.633,4.2a1.615,1.615,0,0,0,1.3,1.589v1.668a.309.309,0,0,0,.313.313.363.363,0,0,0,.357-.313V312.49a1.635,1.635,0,0,0,1.3-1.589C-396.078,310.881-396.078,306.7-397.667,306.7Z" transform="translate(399.3 -295.009)" fill="#fff"/>
    <path id="XMLID_28_" d="M-260.7,11.7h-8.425c-.186,0-.376.147-.376.293V28.887a.345.345,0,0,0,.357.313c.147,0,.333-.1.333-.25l.063.1h1.966V26.125h-1.046c-.147,0-.313-.23-.313-.42,0-.147.127-.42.313-.42h5.853c.186,0,.273.273.273.42s-.127.42-.313.42h-1v2.929h2.009c0,.21.186.25.357.25a.447.447,0,0,0,.357-.376V11.993C-260.3,11.847-260.488,11.7-260.7,11.7Zm-4.827,12c0,.147-.186.543-.4.543H-267.2c-.147,0-.626-.333-.626-.543V21.758c0-.147.42-.23.626-.23h1.3c.147,0,.4.044.4.23V23.7Zm0-3.892c0,.147-.186.25-.4.25H-267.2c-.147,0-.626-.063-.626-.25V17.866c0-.147.42-.293.626-.293h1.3c.147,0,.4.1.4.293v1.946Zm0-3.868a.382.382,0,0,1-.357.357h-1.3c-.186,0-.67-.21-.46-.4V13.959a.521.521,0,0,1,.46-.376h1.3a.416.416,0,0,1,.357.42Zm3.345,7.76c0,.147-.273.543-.46.543h-1.3c-.147,0-.147-.333-.147-.543V21.758c0-.147-.063-.23.147-.23h1.3c.147,0,.46.044.46.23Zm0-3.892c0,.147-.273.25-.46.25h-1.3c-.147,0-.147-.063-.147-.25V17.866c0-.147-.063-.293.147-.293h1.3c.147,0,.46.1.46.293Zm0-3.868c0,.147-.273.357-.46.357h-1.3c-.186,0-.147-.21-.147-.357V14c0-.147-.063-.42.147-.42h1.3c.147,0,.46.21.46.42Z" transform="translate(274.644 -11.7)" fill="#fff"/>
    <path id="Path_13203" data-name="Path 13203" d="M-18.64,112h-3.888c-.19,0-.357.127-.357.273a.241.241,0,0,0,.273.269v13.217a.227.227,0,0,0-.032.028.939.939,0,0,0-.258.725,1,1,0,0,0,1.026.963h2.592a.849.849,0,0,0,.836-.963V112.186C-18.454,112.083-18.473,112-18.64,112Zm-3.159,2.215c0-.147.083-.337.273-.337h1.3a.341.341,0,0,1,.313.337v1.946c0,.147-.127.23-.313.23h-1.3c-.147,0-.273-.063-.273-.23v-1.946Zm0,3.868c0-.147.083-.23.273-.23h1.3c.147,0,.313.04.313.23v1.946c0,.147-.127.543-.313.543h-1.3c-.147,0-.273-.333-.273-.543v-1.946Zm0,3.911c0-.147.083-.357.273-.357h1.3a.361.361,0,0,1,.313.357v1.946c0,.147-.127.4-.313.4h-1.3c-.147,0-.273-.21-.273-.4v-1.946Zm2.509,4.871h-2.616a.318.318,0,0,1-.313-.313v-.016h0v0a.337.337,0,0,1,.313-.313.3.3,0,0,1,.19.04.394.394,0,0,0,.313.044c.127-.044.147-.127.19-.23a.686.686,0,0,1,.079-.19.63.63,0,0,1,.2-.21.645.645,0,0,1,.353-.1.529.529,0,0,1,.079,0,.61.61,0,0,1,.123.024.641.641,0,0,1,.428.472.3.3,0,0,0,.19.23.3.3,0,0,0,.313-.044.344.344,0,0,1,.424.083l0,0a.356.356,0,0,1,.1.206A.357.357,0,0,1-19.29,126.865Z" transform="translate(37.817 -108.025)" fill="#fff"/>
  </g>
</svg>
