<svg xmlns="http://www.w3.org/2000/svg" width="22.695" height="22.695" viewBox="0 0 22.695 22.695">
  <g id="Currency" transform="translate(0.001)">
    <path id="Path_13240" data-name="Path 13240" d="M19.371,3.324A11.347,11.347,0,0,0,3.323,19.371,11.347,11.347,0,0,0,19.371,3.324ZM11.347,21.385A10.038,10.038,0,1,1,21.385,11.347,10.049,10.049,0,0,1,11.347,21.385Zm0,0" transform="translate(0)" fill="#fafafa"/>
    <path id="Path_13241" data-name="Path 13241" d="M203.593,155.672h2.4a.655.655,0,0,0,0-1.309H204.9v-1.091a.655.655,0,0,0-1.309,0v1.091a1.746,1.746,0,0,0,0,3.492H204.9a.436.436,0,1,1,0,.873h-2.4a.655.655,0,0,0,0,1.309h1.091v1.091a.655.655,0,0,0,1.309,0v-1.091a1.746,1.746,0,0,0,0-3.491h-1.309a.436.436,0,1,1,0-.873Zm0,0" transform="translate(-192.901 -145.852)" fill="#fafafa"/>
    <path id="Path_13242" data-name="Path 13242" d="M84.407,73.595a1.091,1.091,0,0,1,0-2.168.661.661,0,0,0,.567-.795,8.512,8.512,0,0,0-16.6,0,.661.661,0,0,0,.567.795,1.091,1.091,0,0,1,0,2.168.661.661,0,0,0-.567.795,8.512,8.512,0,0,0,16.6,0A.661.661,0,0,0,84.407,73.595Zm-7.735,6.117A7.257,7.257,0,0,1,69.809,74.7a2.4,2.4,0,0,0,0-4.373,7.2,7.2,0,0,1,13.725,0,2.4,2.4,0,0,0,0,4.373A7.257,7.257,0,0,1,76.672,79.712Zm0,0" transform="translate(-65.325 -61.163)" fill="#fafafa"/>
  </g>
</svg>
