<svg id="S_settings_1_" data-name="S_settings (1)" xmlns="http://www.w3.org/2000/svg" width="28.569" height="28.569" viewBox="0 0 28.569 28.569">
  <path id="Path_2" data-name="Path 2" d="M15.181,28.569H13.388a2.633,2.633,0,0,1-2.63-2.63v-.607a11.533,11.533,0,0,1-1.791-.743l-.43.43a2.63,2.63,0,0,1-3.72,0L3.55,23.751a2.63,2.63,0,0,1,0-3.72l.43-.43a11.534,11.534,0,0,1-.743-1.791H2.63A2.633,2.633,0,0,1,0,15.181V13.388a2.633,2.633,0,0,1,2.63-2.63h.607A11.536,11.536,0,0,1,3.98,8.967l-.43-.43a2.63,2.63,0,0,1,0-3.72L4.818,3.55a2.63,2.63,0,0,1,3.72,0l.429.429a11.544,11.544,0,0,1,1.791-.743V2.63A2.633,2.633,0,0,1,13.388,0h1.793a2.633,2.633,0,0,1,2.63,2.63v.607A11.533,11.533,0,0,1,19.6,3.98l.43-.43a2.63,2.63,0,0,1,3.72,0l1.267,1.267a2.63,2.63,0,0,1,0,3.72l-.43.43a11.534,11.534,0,0,1,.743,1.791h.607a2.633,2.633,0,0,1,2.63,2.63v1.793a2.633,2.633,0,0,1-2.63,2.63h-.607a11.536,11.536,0,0,1-.743,1.791l.43.43a2.63,2.63,0,0,1,0,3.72l-1.267,1.267a2.63,2.63,0,0,1-3.72,0l-.429-.429a11.544,11.544,0,0,1-1.791.743v.607A2.633,2.633,0,0,1,15.181,28.569ZM9.247,22.831A9.866,9.866,0,0,0,11.8,23.893a.837.837,0,0,1,.628.81v1.236a.957.957,0,0,0,.956.956h1.793a.957.957,0,0,0,.956-.956V24.7a.837.837,0,0,1,.628-.81,9.866,9.866,0,0,0,2.557-1.062.837.837,0,0,1,1.018.129l.875.875a.956.956,0,0,0,1.352,0l1.268-1.268a.956.956,0,0,0,0-1.352l-.876-.876a.837.837,0,0,1-.129-1.018,9.864,9.864,0,0,0,1.062-2.557.837.837,0,0,1,.81-.628h1.236a.957.957,0,0,0,.956-.956V13.388a.957.957,0,0,0-.956-.956H24.7a.837.837,0,0,1-.81-.628,9.866,9.866,0,0,0-1.062-2.557.837.837,0,0,1,.129-1.018l.875-.875a.956.956,0,0,0,0-1.352L22.568,4.734a.956.956,0,0,0-1.352,0l-.876.876a.837.837,0,0,1-1.018.129,9.866,9.866,0,0,0-2.557-1.062.837.837,0,0,1-.628-.81V2.63a.957.957,0,0,0-.956-.956H13.388a.957.957,0,0,0-.956.956V3.866a.837.837,0,0,1-.628.81A9.866,9.866,0,0,0,9.247,5.738a.837.837,0,0,1-1.018-.129l-.875-.875A.956.956,0,0,0,6,4.733L4.734,6a.956.956,0,0,0,0,1.352l.876.876a.837.837,0,0,1,.129,1.018A9.864,9.864,0,0,0,4.676,11.8a.837.837,0,0,1-.81.628H2.63a.957.957,0,0,0-.956.956v1.793a.957.957,0,0,0,.956.956H3.866a.837.837,0,0,1,.81.628,9.866,9.866,0,0,0,1.062,2.557.837.837,0,0,1-.129,1.018l-.875.875a.956.956,0,0,0,0,1.352L6,23.835a.956.956,0,0,0,1.352,0l.876-.876a.841.841,0,0,1,1.018-.129Z" transform="translate(0 0)" fill="#fff"/>
  <path id="Path_3" data-name="Path 3" d="M149.324,154.048a4.724,4.724,0,1,1,4.724-4.724A4.729,4.729,0,0,1,149.324,154.048Zm0-8.176a3.452,3.452,0,1,0,3.452,3.452A3.456,3.456,0,0,0,149.324,145.872Z" transform="translate(-135.04 -135.04)" fill="#fff"/>
</svg>
