<svg xmlns="http://www.w3.org/2000/svg" width="17.958" height="20.432" viewBox="0 0 17.958 20.432">
  <g id="State" transform="translate(-31)">
    <g id="Group_902" data-name="Group 902" transform="translate(31)">
      <g id="Group_901" data-name="Group 901">
        <path id="Path_13255" data-name="Path 13255" d="M43.39,13.5c2.174-3.412,1.9-2.986,1.964-3.075a6.535,6.535,0,0,0,1.21-3.8,6.585,6.585,0,1,0-11.924,3.849L36.568,13.5C34.506,13.817,31,14.761,31,16.84c0,.758.495,1.838,2.852,2.68a18.893,18.893,0,0,0,6.127.911c4.311,0,8.979-1.216,8.979-3.592C48.958,14.761,45.456,13.817,43.39,13.5ZM35.639,9.815l-.021-.03a5.387,5.387,0,1,1,8.764-.06c-.058.076.243-.391-4.4,6.9Zm4.34,9.42c-4.709,0-7.782-1.384-7.782-2.394,0-.679,1.579-1.8,5.078-2.231l2.2,3.45a.6.6,0,0,0,1.01,0l2.2-3.45c3.5.435,5.078,1.552,5.078,2.231C47.761,17.842,44.715,19.235,39.979,19.235Z" transform="translate(-31)" fill="#fafafa"/>
      </g>
    </g>
    <g id="Group_904" data-name="Group 904" transform="translate(36.986 3.631)">
      <g id="Group_903" data-name="Group 903">
        <path id="Path_13256" data-name="Path 13256" d="M183.993,91a2.993,2.993,0,1,0,2.993,2.993A3,3,0,0,0,183.993,91Zm0,4.789a1.8,1.8,0,1,1,1.8-1.8A1.8,1.8,0,0,1,183.993,95.789Z" transform="translate(-181 -91)" fill="#fafafa"/>
      </g>
    </g>
  </g>
</svg>
