<svg id="System_Language" data-name="System Language" xmlns="http://www.w3.org/2000/svg" width="19.146" height="19.146" viewBox="0 0 19.146 19.146">
  <g id="XMLID_26_" transform="translate(4.495 5.12)">
    <g id="XMLID_27_" transform="translate(0 0)">
      <path id="XMLID_28_" d="M68.1,76.395h-.24l-.45,2.243h1.137Z" transform="translate(-67.407 -76.395)" fill="#fff"/>
    </g>
  </g>
  <g id="XMLID_20_" transform="translate(0 0)">
    <g id="XMLID_21_" transform="translate(0 0)">
      <path id="XMLID_22_" d="M11.976,4.323A1.684,1.684,0,0,0,10.309,2.85H4.532A1.685,1.685,0,0,0,2.85,4.532V16.944a1.685,1.685,0,0,0,1.683,1.683h8.844c.164-.187.3-.305.305-.549C13.682,18.016,11.984,4.384,11.976,4.323ZM9.725,13.567a.562.562,0,0,1-.66-.439l-.359-1.793H7.119l-.359,1.793a.56.56,0,0,1-1.1-.221L6.783,7.3a.56.56,0,0,1,.549-.45h1.16a.563.563,0,0,1,.549.45l1.122,5.609A.558.558,0,0,1,9.725,13.567Z" transform="translate(-2.85 -2.85)" fill="#fff"/>
    </g>
  </g>
  <g id="XMLID_17_" transform="translate(6.551 16.895)">
    <g id="XMLID_18_">
      <path id="XMLID_19_" d="M96.946,245.516l.1.771a1.694,1.694,0,0,0,.969,1.3c1.065-1.171.42-.462,1.881-2.072Z" transform="translate(-96.946 -245.516)" fill="#fff"/>
    </g>
  </g>
  <path id="XMLID_3_" d="M200.835,128.348a1.753,1.753,0,0,0-1,.32,3.165,3.165,0,0,0-.836.874,4.744,4.744,0,0,0-.572,1.232,4.521,4.521,0,0,0-.21,1.347,1.324,1.324,0,0,0,.168.744c.114.16.225.24.34.24a1.536,1.536,0,0,0,.763-.42,4.87,4.87,0,0,0,.954-1.084,4.079,4.079,0,0,0,.477-.927c.126-.343.309-.919.549-1.736.008-.023.031-.088.069-.2s.057-.191.069-.221A2.532,2.532,0,0,0,200.835,128.348Z" transform="translate(-184.619 -119.611)" fill="#fff"/>
  <path id="XMLID_10_" d="M141.5,51.515h-6.963l1.454,11.656a1.741,1.741,0,0,1-.416,1.282l-2.461,2.82H141.5a1.7,1.7,0,0,0,1.69-1.69V53.247A1.735,1.735,0,0,0,141.5,51.515Zm-.519,9.779a2.034,2.034,0,0,0,.836-.5.835.835,0,0,1,.141-.122l.21.275a8.3,8.3,0,0,1-.839.733,6.47,6.47,0,0,1-.805.542,1.312,1.312,0,0,1-.5.191c-.2,0-.3-.122-.3-.37a2.655,2.655,0,0,1,.107-.591,2.352,2.352,0,0,1,.145-.469c.038-.153.08-.3.126-.439l-.027-.027a10.541,10.541,0,0,1-1.2,1.286,1.894,1.894,0,0,1-1.206.607.907.907,0,0,1-.74-.416,1.992,1.992,0,0,1-.313-1.213,4.131,4.131,0,0,1,.34-1.618,5.017,5.017,0,0,1,.939-1.446,4.824,4.824,0,0,1,1.385-1.03,3.711,3.711,0,0,1,1.652-.385c.069,0,.275.023.622.065s.546.065.6.069l.076.153a14.369,14.369,0,0,0-.694,1.747c-.217.656-.389,1.244-.519,1.767a6.585,6.585,0,0,0-.195.931C140.823,61.21,140.876,61.294,140.983,61.294Z" transform="translate(-124.046 -48.126)" fill="#fff"/>
</svg>
