<svg xmlns="http://www.w3.org/2000/svg" width="23.208" height="21.395" viewBox="0 0 23.208 21.395">
  <path id="transaction" d="M20.488,0H2.72A2.723,2.723,0,0,0,0,2.72V18.675a2.723,2.723,0,0,0,2.72,2.72H20.488a2.723,2.723,0,0,0,2.72-2.72V2.72A2.723,2.723,0,0,0,20.488,0ZM2.72,1.813H20.488a.908.908,0,0,1,.907.907v2.72H1.813V2.72A.908.908,0,0,1,2.72,1.813ZM20.488,19.582H2.72a.908.908,0,0,1-.907-.907V7.252H21.395V18.675A.908.908,0,0,1,20.488,19.582ZM3.173,3.626a.907.907,0,1,1,.907.907A.906.906,0,0,1,3.173,3.626Zm3.173,0a.907.907,0,1,1,.907.907A.906.906,0,0,1,6.346,3.626Zm9.367,4.8L18.892,11.6l-3.179,3.179L14.431,13.5l.991-.991H10.652V10.7h4.769l-.991-.991Zm-7.926,5.9h4.678v1.813H7.787l.991.991L7.5,18.409,4.316,15.23,7.5,12.051l1.282,1.282Zm0,0" fill="#fafafa"/>
</svg>
