<svg xmlns="http://www.w3.org/2000/svg" width="35" height="35" viewBox="0 0 35 35">
  <g id="Delete_Icon" data-name="Delete Icon" transform="translate(-1811 -403)">
    <rect id="Rectangle_1541" data-name="Rectangle 1541" width="35" height="35" rx="9" transform="translate(1811 403)" fill="#f2f6ff"/>
    <g id="trash" transform="translate(1774.551 413.062)">
      <path id="Path_13246" data-name="Path 13246" d="M59.658,1.984H56.93v-.5A1.488,1.488,0,0,0,55.442,0H53.457a1.488,1.488,0,0,0-1.488,1.488v.5H49.24A1.24,1.24,0,0,0,48,3.225v.992a.5.5,0,0,0,.5.5H60.4a.5.5,0,0,0,.5-.5V3.225A1.24,1.24,0,0,0,59.658,1.984Zm-6.7-.5a.5.5,0,0,1,.5-.5h1.984a.5.5,0,0,1,.5.5v.5H52.961Z" fill="#ff2600"/>
      <path id="Path_13247" data-name="Path 13247" d="M73.519,184a.155.155,0,0,0-.155.162l.409,8.59a1.486,1.486,0,0,0,1.486,1.418h7.534a1.486,1.486,0,0,0,1.486-1.418l.409-8.59a.155.155,0,0,0-.155-.162Zm7.492,1.24a.5.5,0,0,1,.992,0v6.449a.5.5,0,0,1-.992,0Zm-2.481,0a.5.5,0,0,1,.992,0v6.449a.5.5,0,0,1-.992,0Zm-2.481,0a.5.5,0,0,1,.992,0v6.449a.5.5,0,0,1-.992,0Z" transform="translate(-24.578 -178.295)" fill="#ff2600"/>
    </g>
  </g>
</svg>
