<svg id="notification_2_" data-name="notification (2)" xmlns="http://www.w3.org/2000/svg" width="22.608" height="25.722" viewBox="0 0 22.608 25.722">
  <path id="Path_1" data-name="Path 1" d="M50.09,13.206V10.8a7.8,7.8,0,0,0-5.526-7.452V2.261a2.261,2.261,0,0,0-4.521,0V3.349A7.8,7.8,0,0,0,34.516,10.8v2.4a11.833,11.833,0,0,1-3.307,8.227.754.754,0,0,0,.544,1.275h6.858a3.768,3.768,0,0,0,7.384,0h6.858a.754.754,0,0,0,.544-1.275A11.833,11.833,0,0,1,50.09,13.206ZM41.549,2.261a.754.754,0,0,1,1.507,0v.79c-.248-.024-.5-.037-.754-.037s-.506.013-.754.037ZM42.3,24.215a2.264,2.264,0,0,1-2.131-1.507h4.262A2.264,2.264,0,0,1,42.3,24.215ZM33.377,21.2a13.324,13.324,0,0,0,2.646-7.995V10.8a6.28,6.28,0,0,1,12.56,0v2.4A13.324,13.324,0,0,0,51.229,21.2Z" transform="translate(-30.999)" fill="#00359d"/>
</svg>
