<svg xmlns="http://www.w3.org/2000/svg" width="22" height="22" viewBox="0 0 22 22">
  <g id="Settings2" transform="translate(-448 -352)">
    <g id="Group_925" data-name="Group 925">
      <circle id="Ellipse_7" data-name="Ellipse 7" cx="11" cy="11" r="11" transform="translate(448 352)" fill="#d8e2f6"/>
      <path id="Path_2" data-name="Path 2" d="M6.4,12.047H5.645a1.11,1.11,0,0,1-1.109-1.109v-.256a4.864,4.864,0,0,1-.755-.313L3.6,10.55a1.109,1.109,0,0,1-1.569,0L1.5,10.015a1.109,1.109,0,0,1,0-1.569l.181-.181a4.864,4.864,0,0,1-.313-.755H1.109A1.11,1.11,0,0,1,0,6.4V5.645A1.11,1.11,0,0,1,1.109,4.536h.256a4.865,4.865,0,0,1,.313-.755L1.5,3.6a1.109,1.109,0,0,1,0-1.569L2.032,1.5A1.109,1.109,0,0,1,3.6,1.5l.181.181a4.868,4.868,0,0,1,.755-.313V1.109A1.11,1.11,0,0,1,5.645,0H6.4A1.11,1.11,0,0,1,7.511,1.109v.256a4.863,4.863,0,0,1,.755.313L8.447,1.5a1.109,1.109,0,0,1,1.569,0l.534.534a1.109,1.109,0,0,1,0,1.569l-.181.181a4.864,4.864,0,0,1,.313.755h.256a1.11,1.11,0,0,1,1.109,1.109V6.4a1.11,1.11,0,0,1-1.109,1.109h-.256a4.865,4.865,0,0,1-.313.755l.181.181a1.109,1.109,0,0,1,0,1.569l-.534.534a1.109,1.109,0,0,1-1.569,0l-.181-.181a4.868,4.868,0,0,1-.755.313v.256A1.11,1.11,0,0,1,6.4,12.047ZM3.9,9.627a4.16,4.16,0,0,0,1.078.448.353.353,0,0,1,.265.342v.521a.4.4,0,0,0,.4.4H6.4a.4.4,0,0,0,.4-.4v-.521a.353.353,0,0,1,.265-.342,4.16,4.16,0,0,0,1.078-.448.353.353,0,0,1,.429.054l.369.369a.4.4,0,0,0,.57,0l.535-.535a.4.4,0,0,0,0-.57l-.369-.369a.353.353,0,0,1-.054-.429,4.159,4.159,0,0,0,.448-1.078.353.353,0,0,1,.342-.265h.521a.4.4,0,0,0,.4-.4V5.645a.4.4,0,0,0-.4-.4h-.521a.353.353,0,0,1-.342-.265A4.16,4.16,0,0,0,9.628,3.9a.353.353,0,0,1,.054-.429l.369-.369a.4.4,0,0,0,0-.57L9.516,2a.4.4,0,0,0-.57,0l-.369.369a.353.353,0,0,1-.429.054,4.16,4.16,0,0,0-1.078-.448A.353.353,0,0,1,6.8,1.63V1.109a.4.4,0,0,0-.4-.4H5.646a.4.4,0,0,0-.4.4V1.63a.353.353,0,0,1-.265.342A4.16,4.16,0,0,0,3.9,2.42a.353.353,0,0,1-.429-.054L3.1,2a.4.4,0,0,0-.57,0L2,2.531A.4.4,0,0,0,2,3.1l.369.369A.353.353,0,0,1,2.42,3.9a4.159,4.159,0,0,0-.448,1.078.353.353,0,0,1-.342.265H1.109a.4.4,0,0,0-.4.4V6.4a.4.4,0,0,0,.4.4H1.63a.353.353,0,0,1,.342.265A4.16,4.16,0,0,0,2.42,8.148a.353.353,0,0,1-.054.429L2,8.946a.4.4,0,0,0,0,.57l.535.535a.4.4,0,0,0,.57,0l.369-.369A.355.355,0,0,1,3.9,9.627Z" transform="translate(452.903 356.903)" fill="#1e4da9"/>
      <path id="Path_3" data-name="Path 3" d="M146.592,148.584a1.992,1.992,0,1,1,1.992-1.992A1.994,1.994,0,0,1,146.592,148.584Zm0-3.448a1.456,1.456,0,1,0,1.456,1.456A1.457,1.457,0,0,0,146.592,145.136Z" transform="translate(312.334 216.334)" fill="#1e4da9"/>
    </g>
  </g>
</svg>
