<svg id="settings_1_" data-name="settings (1)" xmlns="http://www.w3.org/2000/svg" width="29.552" height="29.551" viewBox="0 0 29.552 29.551">
  <path id="Path_2" data-name="Path 2" d="M15.7,29.551H13.848a2.724,2.724,0,0,1-2.72-2.72V26.2a11.929,11.929,0,0,1-1.853-.769l-.445.445a2.72,2.72,0,0,1-3.848,0L3.672,24.568a2.72,2.72,0,0,1,0-3.848l.444-.444a11.931,11.931,0,0,1-.769-1.853H2.72A2.724,2.724,0,0,1,0,15.7V13.848a2.724,2.724,0,0,1,2.72-2.72h.627a11.933,11.933,0,0,1,.769-1.853l-.445-.445a2.72,2.72,0,0,1,0-3.848L4.983,3.672a2.72,2.72,0,0,1,3.848,0l.444.444a11.941,11.941,0,0,1,1.853-.769V2.72A2.724,2.724,0,0,1,13.848,0H15.7a2.724,2.724,0,0,1,2.72,2.72v.627a11.93,11.93,0,0,1,1.853.769l.445-.445a2.72,2.72,0,0,1,3.848,0l1.311,1.311a2.72,2.72,0,0,1,0,3.848l-.444.444a11.931,11.931,0,0,1,.769,1.853h.627a2.724,2.724,0,0,1,2.72,2.72V15.7a2.724,2.724,0,0,1-2.72,2.72H26.2a11.933,11.933,0,0,1-.769,1.853l.445.445a2.72,2.72,0,0,1,0,3.848l-1.311,1.311a2.72,2.72,0,0,1-3.848,0l-.444-.444a11.941,11.941,0,0,1-1.853.769v.627A2.723,2.723,0,0,1,15.7,29.551ZM9.565,23.616a10.205,10.205,0,0,0,2.645,1.1.866.866,0,0,1,.649.838v1.278a.99.99,0,0,0,.989.989H15.7a.99.99,0,0,0,.989-.989V25.553a.866.866,0,0,1,.649-.838,10.205,10.205,0,0,0,2.645-1.1.866.866,0,0,1,1.053.133l.905.906a.989.989,0,0,0,1.4,0l1.312-1.312a.989.989,0,0,0,0-1.4l-.906-.906a.866.866,0,0,1-.133-1.053,10.2,10.2,0,0,0,1.1-2.645.866.866,0,0,1,.838-.649h1.278a.99.99,0,0,0,.989-.989V13.848a.99.99,0,0,0-.989-.989H25.553a.866.866,0,0,1-.838-.649,10.206,10.206,0,0,0-1.1-2.645.866.866,0,0,1,.133-1.053l.906-.906a.989.989,0,0,0,0-1.4L23.344,4.9a.989.989,0,0,0-1.4,0L21.04,5.8a.866.866,0,0,1-1.053.133,10.205,10.205,0,0,0-2.645-1.1A.866.866,0,0,1,16.692,4V2.72a.99.99,0,0,0-.989-.989H13.849a.99.99,0,0,0-.989.989V4a.866.866,0,0,1-.649.838,10.205,10.205,0,0,0-2.645,1.1A.866.866,0,0,1,8.512,5.8L7.606,4.9a.989.989,0,0,0-1.4,0L4.9,6.208a.989.989,0,0,0,0,1.4l.906.906a.866.866,0,0,1,.133,1.053,10.2,10.2,0,0,0-1.1,2.645A.866.866,0,0,1,4,12.859H2.72a.99.99,0,0,0-.989.989V15.7a.99.99,0,0,0,.989.989H4a.866.866,0,0,1,.838.649,10.205,10.205,0,0,0,1.1,2.645A.866.866,0,0,1,5.8,21.039l-.906.906a.989.989,0,0,0,0,1.4l1.312,1.312a.989.989,0,0,0,1.4,0l.906-.906a.87.87,0,0,1,1.053-.133Z" transform="translate(0 0)" fill="#00359d"/>
  <path id="Path_3" data-name="Path 3" d="M151.03,157.459a6.43,6.43,0,1,1,6.43-6.43A6.437,6.437,0,0,1,151.03,157.459Zm0-11.128a4.7,4.7,0,1,0,4.7,4.7A4.7,4.7,0,0,0,151.03,146.332Z" transform="translate(-136.254 -136.254)" fill="#00359d"/>
</svg>
